<svg viewBox="0 0 269 35" xmlns="http://www.w3.org/2000/svg" xmlns:xlink="http://www.w3.org/1999/xlink" fill="none" overflow="hidden"><path d="M17.81 17.004 11.017 12.809 11.017 17.816 17.811 22.01 34.015 10.283C33.4371 9.05371 32.7295 7.88975 31.904 6.811L17.81 17.004Z" fill="#6A6F80"/><path d="M35.622 17.5C35.622 16.418 35.53 15.38 35.346 14.388L31.49 17.139 31.49 17.5C31.49 24.897 25.34 30.94 17.81 30.94 10.283 30.94 4.131 24.897 4.131 17.5 4.131 10.058 10.237 4.06 17.811 4.06 20.657 4.06 23.32 4.916 25.523 6.405L28.966 3.879C25.936 1.443 22.034 0 17.81 0 7.987 0 0 7.848 0 17.5 0 27.152 7.987 35 17.81 35 27.635 35 35.622 27.152 35.622 17.5ZM55.407 15.786C52.927 15.2 50.817 14.704 50.817 13.035 50.817 10.78 53.662 10.509 54.902 10.509 56.6 10.509 57.564 10.735 58.804 11.321 59.4 10.87 62.201 8.841 62.201 8.841 60.364 7.667 57.611 6.765 54.901 6.765 48.475 6.765 46.226 10.103 46.226 13.26 46.226 17.77 50.22 18.718 53.754 19.53 56.233 20.116 58.391 20.612 58.391 22.326 58.391 23.228 57.84 24.671 54.259 24.671 51.872 24.671 49.256 23.86 47.419 22.506L45.859 26.024C47.741 27.468 51.046 28.414 54.213 28.414 59.538 28.414 62.981 25.889 62.981 21.965 62.935 17.545 58.941 16.598 55.407 15.786ZM82.398 17.32 82.168 17.23 82.352 17.14C84.097 16.192 85.061 14.568 85.061 12.584 85.061 9.201 82.123 7.171 77.257 7.171L67.158 7.171 67.158 28.144 77.854 28.144C83.179 28.144 86.117 26.114 86.117 22.461 86.163 19.936 84.785 18.086 82.398 17.32ZM71.795 10.644 76.706 10.644C79.782 10.644 80.424 12.043 80.424 13.215 80.424 14.884 79.139 15.786 76.706 15.786L71.794 15.786 71.794 10.644ZM71.795 15.786 76.706 15.786 71.794 15.786ZM77.532 24.626 71.795 24.626 71.795 19.26 77.532 19.26C80.149 19.26 81.48 20.162 81.48 21.921 81.48 23.725 80.195 24.627 77.532 24.627ZM101.77 10.644 106.544 7.171 90.432 7.171 90.432 28.1 106.544 28.1 106.544 24.627 95.022 24.627 95.022 19.26 104.892 19.26 104.892 15.787 95.022 15.787 95.022 10.645 101.77 10.645ZM129.037 28.1 124.355 21.289C127.109 20.116 128.716 17.771 128.716 14.659 128.716 10.013 125.227 7.171 119.627 7.171L110.859 7.171 110.859 28.144 115.45 28.144 115.45 22.191 119.994 22.191 124.08 28.144 129.037 28.144 129.037 28.1ZM115.45 10.643 119.535 10.643C122.473 10.643 124.126 12.087 124.126 14.657 124.126 17.228 122.519 18.672 119.535 18.672L115.45 18.672 115.45 10.643Z" fill="#6A6F80"/><path d="M146.297 7.171C154.147 7.171 158.003 10.78 158.003 17.184 158.003 24.807 153.137 28.054 146.206 28.054L138.999 28.054 138.999 7.171 146.297 7.171ZM146.206 24.671C151.439 24.671 154.009 22.146 154.009 17.591 154.009 12.945 151.622 10.644 146.252 10.644L142.809 10.644 142.809 24.671 146.206 24.671ZM175.585 19.034 165.807 19.034 165.807 24.671 177.053 24.671 177.053 28.1 161.997 28.1 161.997 7.171 176.732 7.171 176.732 10.644 165.807 10.644 165.807 15.606 175.585 15.606 175.585 19.034ZM187.979 28.1 179.257 7.17 183.296 7.17 189.953 23.498 196.517 7.17 200.373 7.17 191.743 28.098 187.979 28.098ZM207.167 7.171 203.357 7.171 203.357 28.054 207.167 28.054 207.167 7.171ZM230.257 25.799C229.201 27.062 226.401 28.415 222.728 28.415 215.797 28.37 211.206 24.355 211.206 17.59 211.206 11.276 215.751 6.856 222.82 6.856 226.171 6.856 228.604 7.848 229.889 8.75L229.889 13.937C228.604 12.087 226.033 10.284 222.82 10.284 218.184 10.284 215.338 13.26 215.338 17.635 215.338 21.695 217.862 24.897 222.728 24.987 226.446 24.987 229.063 23.318 230.302 21.199L230.302 25.799 230.257 25.799ZM247.792 19.034 238.015 19.034 238.015 24.671 249.215 24.671 249.215 28.1 234.204 28.1 234.204 7.171 248.894 7.171 248.894 10.644 238.015 10.644 238.015 15.606 247.792 15.606 247.792 19.034ZM260.967 10.283C257.983 10.329 256.744 11.23 256.744 12.629 256.744 16.959 268.954 13.892 268.954 22.055 268.954 25.573 266.384 28.37 260.646 28.37 256.927 28.37 253.989 27.017 252.888 25.754L252.888 21.198C254.173 23.318 256.973 24.987 260.691 24.987 263.675 24.987 265.052 23.995 265.052 22.281 265.052 17.861 252.888 21.108 252.888 12.764 252.888 9.066 255.917 6.901 260.967 6.901 264.226 6.946 266.705 7.893 267.944 8.795L267.944 13.937C266.705 12.042 264.134 10.283 260.967 10.283Z" fill="#6A6F80"/></svg>