<svg width="186" height="87" xmlns="http://www.w3.org/2000/svg" xmlns:xlink="http://www.w3.org/1999/xlink" overflow="hidden"><defs><clipPath id="clip0"><rect x="304" y="344" width="186" height="87"/></clipPath><linearGradient x1="493.564" y1="369.885" x2="299.436" y2="404.115" gradientUnits="userSpaceOnUse" spreadMethod="reflect" id="fill1"><stop offset="0" stop-color="#1C8DF6"/><stop offset="0.0277778" stop-color="#1B8CF5"/><stop offset="0.0555556" stop-color="#1B8CF5"/><stop offset="0.0833333" stop-color="#1B8CF5"/><stop offset="0.111111" stop-color="#1B8CF5"/><stop offset="0.138889" stop-color="#1B8CF5"/><stop offset="0.166667" stop-color="#1B8BF5"/><stop offset="0.194444" stop-color="#1A8BF5"/><stop offset="0.222222" stop-color="#1A8AF5"/><stop offset="0.25" stop-color="#198AF5"/><stop offset="0.277778" stop-color="#1989F5"/><stop offset="0.305556" stop-color="#1888F5"/><stop offset="0.333333" stop-color="#1888F5"/><stop offset="0.361111" stop-color="#1787F5"/><stop offset="0.388889" stop-color="#1786F4"/><stop offset="0.416667" stop-color="#1685F4"/><stop offset="0.444444" stop-color="#1584F4"/><stop offset="0.472222" stop-color="#1583F4"/><stop offset="0.5" stop-color="#1482F4"/><stop offset="0.527778" stop-color="#1381F4"/><stop offset="0.555556" stop-color="#1280F4"/><stop offset="0.583333" stop-color="#117FF3"/><stop offset="0.611111" stop-color="#107EF3"/><stop offset="0.638889" stop-color="#0F7DF3"/><stop offset="0.666667" stop-color="#0E7BF3"/><stop offset="0.694444" stop-color="#0D7AF2"/><stop offset="0.722222" stop-color="#0C78F2"/><stop offset="0.75" stop-color="#0B77F2"/><stop offset="0.777778" stop-color="#0A75F2"/><stop offset="0.805556" stop-color="#0974F1"/><stop offset="0.833333" stop-color="#0872F1"/><stop offset="0.861111" stop-color="#0671F1"/><stop offset="0.888889" stop-color="#056FF1"/><stop offset="0.916667" stop-color="#046DF0"/><stop offset="0.944444" stop-color="#026BF0"/><stop offset="0.972222" stop-color="#0169F0"/><stop offset="1" stop-color="#0068F0"/></linearGradient></defs><g clip-path="url(#clip0)" transform="translate(-304 -344)"><path d="M487.465 390.889 477.607 401.373C476.623 402.419 476.072 403.821 476.072 405.262L476.072 424.334C476.072 427.473 473.534 430 470.425 430L309.647 430C306.519 430 304 427.453 304 424.334L304 405.262C304 403.821 304.551 402.419 305.535 401.373L315.393 390.889C317.439 388.698 317.439 385.302 315.393 383.111L305.535 372.627C304.551 371.581 304 370.179 304 368.738L304 349.666C304 346.547 306.538 344 309.647 344L470.425 344C473.554 344 476.072 346.547 476.072 349.666L476.072 368.738C476.072 370.179 476.623 371.581 477.607 372.627L487.465 383.111C489.512 385.302 489.512 388.698 487.465 390.889Z" fill="url(#fill1)" fill-rule="evenodd"/><text fill="#E8E9EC" font-family="Arial,Arial_MSFontService,sans-serif" font-weight="400" font-size="19" transform="translate(347.744 383)">Открываем<tspan font-size="19" x="6.23334" y="23">сигналинг</tspan></text></g></svg>