<svg width="186" height="87" xmlns="http://www.w3.org/2000/svg" xmlns:xlink="http://www.w3.org/1999/xlink" overflow="hidden"><defs><clipPath id="clip0"><rect x="131" y="344" width="186" height="87"/></clipPath><linearGradient x1="320.564" y1="369.885" x2="126.436" y2="404.115" gradientUnits="userSpaceOnUse" spreadMethod="reflect" id="fill1"><stop offset="0" stop-color="#0C4FE3"/><stop offset="0.0212766" stop-color="#0D4EE2"/><stop offset="0.0425532" stop-color="#0E4EE2"/><stop offset="0.0638298" stop-color="#0F4EE2"/><stop offset="0.0851064" stop-color="#104EE2"/><stop offset="0.106383" stop-color="#114EE2"/><stop offset="0.12766" stop-color="#124DE2"/><stop offset="0.148936" stop-color="#134DE2"/><stop offset="0.170213" stop-color="#134DE1"/><stop offset="0.191489" stop-color="#144CE1"/><stop offset="0.212766" stop-color="#154CE1"/><stop offset="0.234043" stop-color="#164BE0"/><stop offset="0.255319" stop-color="#174BE0"/><stop offset="0.276596" stop-color="#184ADF"/><stop offset="0.297872" stop-color="#194ADF"/><stop offset="0.319149" stop-color="#1949DF"/><stop offset="0.340426" stop-color="#1A48DE"/><stop offset="0.361702" stop-color="#1B47DD"/><stop offset="0.382979" stop-color="#1C47DD"/><stop offset="0.404255" stop-color="#1C46DC"/><stop offset="0.425532" stop-color="#1D45DC"/><stop offset="0.446809" stop-color="#1E44DB"/><stop offset="0.468085" stop-color="#1E43DA"/><stop offset="0.489362" stop-color="#1F42DA"/><stop offset="0.510638" stop-color="#1F41D9"/><stop offset="0.531915" stop-color="#2040D8"/><stop offset="0.553191" stop-color="#213FD7"/><stop offset="0.574468" stop-color="#213ED6"/><stop offset="0.595745" stop-color="#223CD6"/><stop offset="0.617021" stop-color="#223BD5"/><stop offset="0.638298" stop-color="#223AD4"/><stop offset="0.659574" stop-color="#2339D3"/><stop offset="0.680851" stop-color="#2337D2"/><stop offset="0.702128" stop-color="#2436D1"/><stop offset="0.723404" stop-color="#2434D0"/><stop offset="0.744681" stop-color="#2433CF"/><stop offset="0.765957" stop-color="#2531CE"/><stop offset="0.787234" stop-color="#2530CD"/><stop offset="0.808511" stop-color="#252ECC"/><stop offset="0.829787" stop-color="#262DCB"/><stop offset="0.851064" stop-color="#262BC9"/><stop offset="0.87234" stop-color="#2629C8"/><stop offset="0.893617" stop-color="#2628C7"/><stop offset="0.914894" stop-color="#2626C6"/><stop offset="0.93617" stop-color="#2624C4"/><stop offset="0.957447" stop-color="#2622C3"/><stop offset="0.978723" stop-color="#2620C2"/><stop offset="1" stop-color="#271FC1"/></linearGradient></defs><g clip-path="url(#clip0)" transform="translate(-131 -344)"><path d="M314.465 390.889 304.607 401.373C303.623 402.419 303.072 403.821 303.072 405.262L303.072 424.334C303.072 427.473 300.534 430 297.425 430L136.647 430C133.519 430 131 427.453 131 424.334L131 405.262C131 403.821 131.551 402.419 132.535 401.373L142.393 390.889C144.439 388.698 144.439 385.302 142.393 383.111L132.535 372.627C131.551 371.581 131 370.179 131 368.738L131 349.666C131 346.547 133.538 344 136.647 344L297.425 344C300.554 344 303.072 346.547 303.072 349.666L303.072 368.738C303.072 370.179 303.623 371.581 304.607 372.627L314.465 383.111C316.512 385.302 316.512 388.698 314.465 390.889Z" fill="url(#fill1)" fill-rule="evenodd"/><text fill="#E8E9EC" font-family="Arial,Arial_MSFontService,sans-serif" font-weight="400" font-size="19" transform="translate(174.553 383)">Открываем<tspan font-size="19" x="6.23332" y="23">сигналинг</tspan></text></g></svg>